<svg width="39" height="33" viewBox="0 0 39 33" fill="none" xmlns="http://www.w3.org/2000/svg">
<path d="M36.2143 20.0357V23.5714C36.2143 25.6462 35.2857 27.4018 33.4286 28.8382V32.4107C33.4286 32.5826 33.3633 32.7238 33.2327 32.8343C33.1021 32.9448 32.9353 33 32.7321 33H31.3393C31.1362 33 30.9693 32.9448 30.8387 32.8343C30.7081 32.7238 30.6429 32.5826 30.6429 32.4107V30.2377C29.7288 30.5078 28.8002 30.6429 27.8571 30.6429H11.1429C10.1998 30.6429 9.27121 30.5078 8.35714 30.2377V32.2634C8.35714 32.4721 8.28823 32.647 8.15039 32.7882C8.01256 32.9294 7.84933 33 7.66071 33H6.26786C6.07924 33 5.91602 32.9294 5.77818 32.7882C5.64035 32.647 5.57143 32.4721 5.57143 32.2634V28.8382C3.71429 27.4018 2.78571 25.6462 2.78571 23.5714V20.0357H36.2143ZM15.3214 12.375C15.3214 12.5469 15.2561 12.6881 15.1256 12.7985C14.995 12.909 14.8281 12.9643 14.625 12.9643C14.4219 12.9643 14.255 12.909 14.1244 12.7985C13.9939 12.6881 13.9286 12.5469 13.9286 12.375C13.9286 12.2031 13.9939 12.0619 14.1244 11.9515C14.255 11.841 14.4219 11.7857 14.625 11.7857C14.8281 11.7857 14.995 11.841 15.1256 11.9515C15.2561 12.0619 15.3214 12.2031 15.3214 12.375ZM16.7143 11.1964C16.7143 11.3683 16.649 11.5095 16.5184 11.62C16.3878 11.7305 16.221 11.7857 16.0179 11.7857C15.8147 11.7857 15.6479 11.7305 15.5173 11.62C15.3867 11.5095 15.3214 11.3683 15.3214 11.1964C15.3214 11.0246 15.3867 10.8834 15.5173 10.7729C15.6479 10.6624 15.8147 10.6071 16.0179 10.6071C16.221 10.6071 16.3878 10.6624 16.5184 10.7729C16.649 10.8834 16.7143 11.0246 16.7143 11.1964ZM15.3214 10.0179C15.3214 10.1897 15.2561 10.3309 15.1256 10.4414C14.995 10.5519 14.8281 10.6071 14.625 10.6071C14.4219 10.6071 14.255 10.5519 14.1244 10.4414C13.9939 10.3309 13.9286 10.1897 13.9286 10.0179C13.9286 9.84598 13.9939 9.7048 14.1244 9.59431C14.255 9.48382 14.4219 9.42857 14.625 9.42857C14.8281 9.42857 14.995 9.48382 15.1256 9.59431C15.2561 9.7048 15.3214 9.84598 15.3214 10.0179ZM18.1071 10.0179C18.1071 10.1897 18.0419 10.3309 17.9113 10.4414C17.7807 10.5519 17.6138 10.6071 17.4107 10.6071C17.2076 10.6071 17.0407 10.5519 16.9102 10.4414C16.7796 10.3309 16.7143 10.1897 16.7143 10.0179C16.7143 9.84598 16.7796 9.7048 16.9102 9.59431C17.0407 9.48382 17.2076 9.42857 17.4107 9.42857C17.6138 9.42857 17.7807 9.48382 17.9113 9.59431C18.0419 9.7048 18.1071 9.84598 18.1071 10.0179ZM16.7143 8.83929C16.7143 9.01116 16.649 9.15234 16.5184 9.26284C16.3878 9.37333 16.221 9.42857 16.0179 9.42857C15.8147 9.42857 15.6479 9.37333 15.5173 9.26284C15.3867 9.15234 15.3214 9.01116 15.3214 8.83929C15.3214 8.66741 15.3867 8.52623 15.5173 8.41574C15.6479 8.30525 15.8147 8.25 16.0179 8.25C16.221 8.25 16.3878 8.30525 16.5184 8.41574C16.649 8.52623 16.7143 8.66741 16.7143 8.83929ZM15.3214 7.66071C15.3214 7.83259 15.2561 7.97377 15.1256 8.08426C14.995 8.19475 14.8281 8.25 14.625 8.25C14.4219 8.25 14.255 8.19475 14.1244 8.08426C13.9939 7.97377 13.9286 7.83259 13.9286 7.66071C13.9286 7.48884 13.9939 7.34766 14.1244 7.23717C14.255 7.12667 14.4219 7.07143 14.625 7.07143C14.8281 7.07143 14.995 7.12667 15.1256 7.23717C15.2561 7.34766 15.3214 7.48884 15.3214 7.66071ZM39 17.0893V18.2679C39 18.4397 38.9347 18.5809 38.8041 18.6914C38.6735 18.8019 38.5067 18.8571 38.3036 18.8571H0.696429C0.493304 18.8571 0.326451 18.8019 0.195871 18.6914C0.0652902 18.5809 0 18.4397 0 18.2679V17.0893C0 16.9174 0.0652902 16.7762 0.195871 16.6657C0.326451 16.5552 0.493304 16.5 0.696429 16.5H2.78571V4.71429C2.78571 3.41295 3.3298 2.3019 4.41797 1.38114C5.50614 0.460379 6.8192 0 8.35714 0C9.92411 0 11.2589 0.478795 12.3616 1.43638C13.029 1.20312 13.74 1.12946 14.4944 1.2154C15.2489 1.30134 15.9235 1.54074 16.5184 1.93359L16.9972 1.52846C17.1568 1.39342 17.3164 1.39342 17.476 1.52846L18.3901 2.3019C18.5497 2.43694 18.5497 2.57199 18.3901 2.70703L11.5564 8.4894C11.3968 8.62444 11.2372 8.62444 11.0776 8.4894L10.1635 7.71596C10.0039 7.58092 10.0039 7.44587 10.1635 7.31083L10.6423 6.90569C10.12 6.34096 9.82617 5.70257 9.76088 4.99051C9.69559 4.27846 9.86607 3.61551 10.2723 3.00167C9.73549 2.57199 9.0971 2.35714 8.35714 2.35714C7.58817 2.35714 6.93164 2.58733 6.38756 3.04771C5.84347 3.50809 5.57143 4.06362 5.57143 4.71429V16.5H38.3036C38.5067 16.5 38.6735 16.5552 38.8041 16.6657C38.9347 16.7762 39 16.9174 39 17.0893ZM19.5 8.83929C19.5 9.01116 19.4347 9.15234 19.3041 9.26284C19.1735 9.37333 19.0067 9.42857 18.8036 9.42857C18.6004 9.42857 18.4336 9.37333 18.303 9.26284C18.1724 9.15234 18.1071 9.01116 18.1071 8.83929C18.1071 8.66741 18.1724 8.52623 18.303 8.41574C18.4336 8.30525 18.6004 8.25 18.8036 8.25C19.0067 8.25 19.1735 8.30525 19.3041 8.41574C19.4347 8.52623 19.5 8.66741 19.5 8.83929ZM18.1071 7.66071C18.1071 7.83259 18.0419 7.97377 17.9113 8.08426C17.7807 8.19475 17.6138 8.25 17.4107 8.25C17.2076 8.25 17.0407 8.19475 16.9102 8.08426C16.7796 7.97377 16.7143 7.83259 16.7143 7.66071C16.7143 7.48884 16.7796 7.34766 16.9102 7.23717C17.0407 7.12667 17.2076 7.07143 17.4107 7.07143C17.6138 7.07143 17.7807 7.12667 17.9113 7.23717C18.0419 7.34766 18.1071 7.48884 18.1071 7.66071ZM16.7143 6.48214C16.7143 6.65402 16.649 6.7952 16.5184 6.90569C16.3878 7.01618 16.221 7.07143 16.0179 7.07143C15.8147 7.07143 15.6479 7.01618 15.5173 6.90569C15.3867 6.7952 15.3214 6.65402 15.3214 6.48214C15.3214 6.31027 15.3867 6.16909 15.5173 6.05859C15.6479 5.9481 15.8147 5.89286 16.0179 5.89286C16.221 5.89286 16.3878 5.9481 16.5184 6.05859C16.649 6.16909 16.7143 6.31027 16.7143 6.48214ZM20.8929 7.66071C20.8929 7.83259 20.8276 7.97377 20.697 8.08426C20.5664 8.19475 20.3996 8.25 20.1964 8.25C19.9933 8.25 19.8265 8.19475 19.6959 8.08426C19.5653 7.97377 19.5 7.83259 19.5 7.66071C19.5 7.48884 19.5653 7.34766 19.6959 7.23717C19.8265 7.12667 19.9933 7.07143 20.1964 7.07143C20.3996 7.07143 20.5664 7.12667 20.697 7.23717C20.8276 7.34766 20.8929 7.48884 20.8929 7.66071ZM19.5 6.48214C19.5 6.65402 19.4347 6.7952 19.3041 6.90569C19.1735 7.01618 19.0067 7.07143 18.8036 7.07143C18.6004 7.07143 18.4336 7.01618 18.303 6.90569C18.1724 6.7952 18.1071 6.65402 18.1071 6.48214C18.1071 6.31027 18.1724 6.16909 18.303 6.05859C18.4336 5.9481 18.6004 5.89286 18.8036 5.89286C19.0067 5.89286 19.1735 5.9481 19.3041 6.05859C19.4347 6.16909 19.5 6.31027 19.5 6.48214ZM18.1071 5.30357C18.1071 5.47545 18.0419 5.61663 17.9113 5.72712C17.7807 5.83761 17.6138 5.89286 17.4107 5.89286C17.2076 5.89286 17.0407 5.83761 16.9102 5.72712C16.7796 5.61663 16.7143 5.47545 16.7143 5.30357C16.7143 5.1317 16.7796 4.99051 16.9102 4.88002C17.0407 4.76953 17.2076 4.71429 17.4107 4.71429C17.6138 4.71429 17.7807 4.76953 17.9113 4.88002C18.0419 4.99051 18.1071 5.1317 18.1071 5.30357ZM22.2857 6.48214C22.2857 6.65402 22.2204 6.7952 22.0898 6.90569C21.9593 7.01618 21.7924 7.07143 21.5893 7.07143C21.3862 7.07143 21.2193 7.01618 21.0887 6.90569C20.9581 6.7952 20.8929 6.65402 20.8929 6.48214C20.8929 6.31027 20.9581 6.16909 21.0887 6.05859C21.2193 5.9481 21.3862 5.89286 21.5893 5.89286C21.7924 5.89286 21.9593 5.9481 22.0898 6.05859C22.2204 6.16909 22.2857 6.31027 22.2857 6.48214ZM20.8929 5.30357C20.8929 5.47545 20.8276 5.61663 20.697 5.72712C20.5664 5.83761 20.3996 5.89286 20.1964 5.89286C19.9933 5.89286 19.8265 5.83761 19.6959 5.72712C19.5653 5.61663 19.5 5.47545 19.5 5.30357C19.5 5.1317 19.5653 4.99051 19.6959 4.88002C19.8265 4.76953 19.9933 4.71429 20.1964 4.71429C20.3996 4.71429 20.5664 4.76953 20.697 4.88002C20.8276 4.99051 20.8929 5.1317 20.8929 5.30357ZM23.6786 5.30357C23.6786 5.47545 23.6133 5.61663 23.4827 5.72712C23.3521 5.83761 23.1853 5.89286 22.9821 5.89286C22.779 5.89286 22.6122 5.83761 22.4816 5.72712C22.351 5.61663 22.2857 5.47545 22.2857 5.30357C22.2857 5.1317 22.351 4.99051 22.4816 4.88002C22.6122 4.76953 22.779 4.71429 22.9821 4.71429C23.1853 4.71429 23.3521 4.76953 23.4827 4.88002C23.6133 4.99051 23.6786 5.1317 23.6786 5.30357Z" fill="#F09A52"/>
</svg>
