<svg width="32" height="32" viewBox="0 0 32 32" fill="none" xmlns="http://www.w3.org/2000/svg">
<path d="M12.5 5C11.43 5 10.498 5.608 9.906 6.438C9.314 7.268 9 8.34 9 9.5C9 10.66 9.314 11.733 9.906 12.563C10.498 13.393 11.43 14 12.5 14C13.57 14 14.502 13.392 15.094 12.562C15.686 11.732 16 10.66 16 9.5C16 8.34 15.686 7.267 15.094 6.437C14.502 5.607 13.57 5 12.5 5ZM16 9.5C16 10.66 16.314 11.733 16.906 12.563C17.498 13.393 18.431 14 19.5 14C20.57 14 21.502 13.392 22.094 12.562C22.686 11.732 23 10.66 23 9.5C23 8.34 22.686 7.267 22.094 6.437C21.502 5.607 20.57 5 19.5 5C18.43 5 17.498 5.608 16.906 6.438C16.314 7.268 16 8.34 16 9.5ZM12.5 7C12.812 7 13.156 7.156 13.47 7.594C13.78 8.031 14 8.727 14 9.5C14 10.273 13.78 10.97 13.47 11.406C13.156 11.844 12.812 12 12.5 12C12.188 12 11.844 11.844 11.53 11.406C11.22 10.969 11 10.273 11 9.5C11 8.727 11.22 8.03 11.53 7.594C11.844 7.156 12.188 7 12.5 7ZM19.5 7C19.812 7 20.156 7.156 20.47 7.594C20.78 8.031 21 8.727 21 9.5C21 10.273 20.78 10.97 20.47 11.406C20.156 11.844 19.812 12 19.5 12C19.188 12 18.844 11.844 18.53 11.406C18.22 10.969 18 10.273 18 9.5C18 8.727 18.22 8.03 18.53 7.594C18.844 7.156 19.188 7 19.5 7ZM7.5 12C6.43 12 5.498 12.608 4.906 13.438C4.314 14.268 4 15.34 4 16.5C4 17.66 4.314 18.733 4.906 19.563C5.498 20.393 6.43 21 7.5 21C8.57 21 9.502 20.392 10.094 19.562C10.686 18.732 11 17.66 11 16.5C11 15.34 10.686 14.267 10.094 13.437C9.502 12.607 8.57 12 7.5 12ZM24.5 12C23.43 12 22.498 12.608 21.906 13.438C21.314 14.268 21 15.34 21 16.5C21 17.66 21.314 18.733 21.906 19.563C22.498 20.393 23.43 21 24.5 21C25.57 21 26.502 20.392 27.094 19.562C27.686 18.732 28 17.66 28 16.5C28 15.34 27.686 14.267 27.094 13.437C26.502 12.607 25.57 12 24.5 12ZM7.5 14C7.812 14 8.156 14.156 8.47 14.594C8.78 15.031 9 15.727 9 16.5C9 17.273 8.78 17.97 8.47 18.406C8.156 18.844 7.812 19 7.5 19C7.188 19 6.844 18.844 6.53 18.406C6.22 17.97 6 17.273 6 16.5C6 15.727 6.22 15.03 6.53 14.594C6.844 14.156 7.188 14 7.5 14ZM24.5 14C24.812 14 25.156 14.156 25.47 14.594C25.78 15.031 26 15.727 26 16.5C26 17.273 25.78 17.97 25.47 18.406C25.156 18.844 24.812 19 24.5 19C24.188 19 23.844 18.844 23.53 18.406C23.22 17.969 23 17.273 23 16.5C23 15.727 23.22 15.03 23.53 14.594C23.844 14.156 24.188 14 24.5 14ZM16 16C14.667 16 13.737 16.865 13.28 17.625C12.826 18.385 12.546 19.017 12.28 19.281C12.127 19.438 11.162 19.801 10.156 20.314C9.653 20.571 9.146 20.914 8.719 21.439C8.289 21.964 7.999 22.689 7.999 23.502C7.999 25.422 9.579 27.002 11.499 27.002C12.365 27.002 13.269 26.722 14.154 26.472C15.043 26.216 16 26 16 26C16 26 16.957 26.216 17.844 26.47C18.73 26.72 19.634 27 20.5 27C22.42 27 24 25.42 24 23.5C24 22.706 23.707 21.98 23.28 21.47C22.855 20.957 22.343 20.64 21.844 20.375C20.844 19.845 19.861 19.425 19.719 19.281C19.479 19.044 19.209 18.391 18.749 17.627C18.29 16.86 17.34 16 16 16ZM16 18C16.66 18 16.733 18.16 17.03 18.656C17.33 19.151 17.554 19.992 18.28 20.719C19.105 21.539 20.147 21.719 20.906 22.123C21.286 22.325 21.576 22.54 21.75 22.748C21.923 22.955 22 23.144 22 23.498C22 24.338 21.34 24.998 20.5 24.998C20.21 24.998 19.276 24.778 18.406 24.528C17.536 24.281 16.816 23.998 16 23.998C15.184 23.998 14.464 24.281 13.594 24.528C12.724 24.778 11.79 24.998 11.5 24.998C10.66 24.998 10 24.338 10 23.498C10 23.095 10.084 22.888 10.25 22.684C10.416 22.481 10.722 22.28 11.094 22.091C11.838 21.711 12.874 21.561 13.719 20.716C14.452 19.979 14.672 19.111 14.969 18.621C15.261 18.131 15.331 17.996 15.999 17.996L16 18Z" fill="#F09A52"/>
</svg>
