<svg width="64" height="55" viewBox="0 0 64 55" fill="none" xmlns="http://www.w3.org/2000/svg">
<path d="M50.06 4.35204C47.931 3.27135 46.551 3.6641 45.832 4.0846C45.04 3.6599 44.242 3.30247 43.454 3.05437C41.34 2.38914 37.911 2.00732 34.046 2.00732C30.181 2.00732 26.751 2.38914 24.638 3.05437C23.849 3.30247 23.051 3.6599 22.259 4.0846C21.538 3.66578 20.158 3.27724 18.035 4.35541C13.204 6.81198 2.851 5.83894 8.979 16.423C9.917 18.0402 10.646 19.1932 11.289 19.8778C11.231 23.955 12.336 28.885 14.569 32.5324C13.788 33.5921 12.617 35.6845 12.714 38.575C7.305 37.4775 3 32.122 3 32.122C3 38.8113 9.191 41.844 13.358 41.8768C13.7855 43.0824 14.3725 44.2438 15.108 45.3392C15.961 46.6217 18.557 47.5132 20.767 47.9488C21.23 49.3533 21.815 50.3154 22.539 50.91C23.946 52.063 26.641 52.4676 28.834 52.4676C28.968 52.4676 29.101 52.4667 29.23 52.4642C31.232 52.4179 32.925 52.0487 34.047 51.4281C35.169 52.0487 36.861 52.4188 38.861 52.4642C41.115 52.5079 44.058 52.1328 45.553 50.9092C46.267 50.3238 46.849 49.355 47.313 47.9497C49.525 47.514 52.129 46.6243 52.985 45.3384C56.874 39.4909 55.128 35.0596 53.913 33.1043C56.228 29.361 57.094 24.0383 56.878 19.7937C57.502 19.0999 58.212 17.9763 59.113 16.4188C65.243 5.83389 54.89 6.80862 50.06 4.35204ZM16.867 44.5647C13.652 39.7297 14.686 36.1025 15.748 34.2035C16.624 35.2724 17.628 36.1504 18.758 36.7669C18.886 36.9923 19.109 37.3463 19.429 37.7727C19.572 41.3175 19.851 44.071 20.294 46.155C18.491 45.6941 17.188 45.0465 16.867 44.5647ZM20.176 34.6341C19.7899 34.3166 19.4831 33.9374 19.2737 33.5188C19.0643 33.1002 18.9564 32.6506 18.9564 32.1964C18.9564 31.7423 19.0643 31.2927 19.2737 30.8741C19.4831 30.4555 19.7899 30.0763 20.176 29.7588L26.597 24.4579C27.339 23.8448 28.267 23.3528 29.31 22.9794C28.96 23.294 28.747 23.6943 28.747 24.2309C28.747 25.7161 32.964 27.0322 34.047 27.0322C35.128 27.0322 39.347 25.7161 39.347 24.2309C39.347 23.6935 39.133 23.2931 38.784 22.9786C39.829 23.352 40.758 23.8448 41.503 24.4571L47.919 29.7588C48.3051 30.0762 48.612 30.4552 48.8215 30.8737C49.031 31.2923 49.139 31.7417 49.1391 32.1958C49.1391 32.6499 49.0314 33.0994 48.822 33.518C48.6127 33.9366 48.306 34.3157 47.92 34.6332C47.1349 35.2801 46.0781 35.6403 44.979 35.6357C43.9834 35.6345 43.021 35.3345 42.265 34.7897L42.211 34.7493C42.1539 34.709 42.0952 34.6703 42.035 34.6332L36.317 29.9144L35.614 29.3341C35.225 29.0128 34.655 28.8278 34.049 28.8278C33.444 28.8278 32.873 29.0128 32.486 29.3332L31.581 30.08L26.004 34.6719C25.963 34.6972 25.922 34.7241 25.883 34.7527L25.841 34.7838C25.085 35.3328 24.1198 35.6354 23.121 35.6366C22.0208 35.6409 20.9628 35.2808 20.176 34.6341ZM29.707 34.7392C30.139 36.7231 32.197 37.6121 34.047 37.6121C35.896 37.6121 37.954 36.7231 38.385 34.7392C38.515 34.1471 38.388 33.3894 38.021 32.4794L40.545 34.5643L41.154 35.0672L38.772 37.0343C37.67 37.9417 35.949 38.4623 34.047 38.4623C32.145 38.4623 30.42 37.9417 29.317 37.0351L26.937 35.0689L30.071 32.4836C29.703 33.3894 29.578 34.148 29.707 34.7392ZM31.392 31.937H33.23L34.046 35.9368L34.862 31.937H36.7C37.29 33.0757 37.534 33.9865 37.401 34.5971C37.07 36.1184 35.477 36.798 34.047 36.798C32.614 36.798 31.023 36.1176 30.692 34.5971C30.559 33.9857 30.802 33.0757 31.392 31.937ZM33.299 49.8201C32.662 50.4037 31.081 50.7931 29.175 50.8377C26.942 50.8865 24.792 50.4466 23.958 49.7621C22.72 48.747 21.912 45.4494 21.547 39.9618C23.428 41.5177 26.347 43.1257 30.725 43.6841C30.353 43.2535 30.109 42.5832 30.109 41.8213C30.109 41.6708 30.126 41.5253 30.145 41.3831C30.457 41.4538 30.77 41.5295 31.08 41.585C31.073 41.6632 31.064 41.7414 31.064 41.8213C31.064 42.8927 31.604 43.7321 32.294 43.838C32.754 43.8666 33.222 43.8893 33.706 43.8969C33.676 44.49 33.659 45.0836 33.655 45.6773C33.666 46.8833 33.713 48.0885 33.869 49.2953L33.299 49.8201ZM44.134 49.7612C43.3 50.4458 41.148 50.8823 38.918 50.8369C37.011 50.7923 35.431 50.4029 34.796 49.8192L34.22 49.2919C34.375 48.0859 34.419 46.8808 34.427 45.6748C34.4225 45.0808 34.4045 44.4869 34.373 43.8935C40.44 43.8237 44.268 41.8776 46.548 39.9921C46.185 45.4586 45.376 48.7444 44.134 49.7612ZM51.228 44.5638C50.906 45.0465 49.597 45.6975 47.787 46.1575C48.238 44.0634 48.523 41.3041 48.665 37.792C48.76 37.6667 48.848 37.5456 48.924 37.4338C49.301 37.2446 49.667 37.0654 50.055 36.8669C51.034 36.3657 51.892 35.6626 52.645 34.8183C53.528 36.7955 54.126 40.2032 51.228 44.5638ZM48.987 35.4902C43.217 38.448 38.781 40.2814 34.495 40.2814C30.567 40.2814 26.502 38.7298 21.412 36.1983C21.9602 36.361 22.5367 36.4463 23.118 36.4506C24.24 36.4506 25.298 36.1462 26.181 35.6054L28.605 37.6062C29.896 38.6675 31.879 39.2764 34.047 39.2764C36.213 39.2764 38.195 38.6667 39.484 37.6053L41.909 35.6038C42.7983 36.1531 43.8726 36.4498 44.976 36.4506C46.341 36.4564 47.6537 36.0092 48.629 35.206C49.1055 34.8141 49.4841 34.3461 49.7425 33.8296C50.001 33.313 50.1341 32.7581 50.1341 32.1977C50.1341 31.6372 50.001 31.0824 49.7425 30.5658C49.4841 30.0492 49.1055 29.5813 48.629 29.1894L43.266 24.7573C44.3084 25.3918 45.5632 25.7318 46.85 25.7287C50.098 25.7287 52.741 23.6346 52.741 21.0603C52.741 18.4851 50.098 16.391 46.85 16.391C43.602 16.391 40.958 18.4851 40.958 21.0603C40.958 22.0804 41.378 23.0223 42.081 23.791C40.144 22.2646 37.232 21.3857 34.043 21.3857C30.846 21.3857 27.926 22.2696 25.995 23.8053C26.7281 23.0229 27.1284 22.0564 27.132 21.0603C27.132 18.4851 24.488 16.391 21.24 16.391C17.992 16.391 15.35 18.4851 15.35 21.0603C15.35 23.6346 17.992 25.7287 21.24 25.7287C22.535 25.7314 23.7974 25.387 24.844 24.7456L19.463 29.1886C18.5175 29.9672 17.978 31.0295 17.9628 32.1424C17.9476 33.2552 18.458 34.3277 19.382 35.1244C15.477 32.561 13.343 25.6564 13.298 20.2857C14.071 19.6692 14.912 18.1344 16.086 15.5837C17.041 13.5081 17.05 11.9219 17.269 10.504C19.566 7.86828 22.597 5.44114 25.358 4.57239C27.223 3.98621 30.471 3.63551 34.046 3.63551C37.621 3.63551 40.867 3.98621 42.733 4.57239C45.496 5.44114 48.528 7.86996 50.826 10.5074C51.044 11.9244 51.055 13.5081 52.007 15.5803C53.261 18.3035 54.133 19.8593 54.95 20.3849C55.149 26.0979 53.216 33.3221 48.987 35.4902ZM48.198 24.2561C48.98 24.2561 49.705 24.0719 50.323 23.7683C49.3823 24.5099 48.1393 24.9198 46.85 24.9137C44.153 24.9137 41.959 23.1838 41.959 21.0594C41.959 18.9342 44.152 17.2043 46.85 17.2043C48.208 17.2043 49.438 17.6441 50.325 18.3506C49.6804 18.0313 48.9461 17.8626 48.198 17.8619C45.964 17.8619 44.154 19.2942 44.154 21.0594C44.154 22.8255 45.964 24.2561 48.198 24.2561ZM19.895 17.8628C19.112 17.8628 18.388 18.047 17.769 18.3514C18.7093 17.6092 19.9525 17.1989 21.242 17.2051C23.939 17.2051 26.134 18.9351 26.134 21.0603C26.134 23.1846 23.94 24.9146 21.242 24.9146C19.9527 24.9204 18.7098 24.5105 17.769 23.7691C18.388 24.0727 19.112 24.2569 19.895 24.2569C22.128 24.2569 23.937 22.8264 23.937 21.0603C23.937 19.295 22.128 17.8628 19.895 17.8628Z" fill="black"/>
<path d="M28.039 26.9204L27.14 26.2114L26.242 26.9221L27.14 27.631L28.039 26.9204ZM25.899 28.874L25.001 28.1634L24.103 28.874L25.001 29.5847L25.899 28.874ZM26.916 29.5847L27.813 30.2953L28.712 29.5847L27.813 28.874L26.916 29.5847ZM43.989 28.874L43.091 28.1634L42.192 28.874L43.091 29.5847L43.989 28.874ZM41.85 26.9221L40.952 26.2114L40.054 26.9204L40.952 27.631L41.85 26.9221ZM41.177 29.5847L40.278 28.874L39.38 29.5847L40.278 30.2953L41.177 29.5847Z" fill="black"/>
</svg>
