<svg width="40" height="39" viewBox="0 0 40 39" fill="none" xmlns="http://www.w3.org/2000/svg">
<path d="M16.1301 34.5279C16.4532 34.4342 16.757 34.3402 17.0475 34.2505C18.1168 33.9199 19.0042 33.6455 20 33.6455C20.9958 33.6455 21.8832 33.9199 22.9525 34.2505C23.2429 34.3402 23.5467 34.4341 23.8697 34.5278C24.6019 34.7428 25.3626 34.9453 26.0041 35.0946C26.6223 35.2386 27.1903 35.3482 27.5 35.3482C29.1862 35.3482 30.5 33.9905 30.5 32.2942C30.5 31.9583 30.4644 31.6686 30.373 31.4005C30.2804 31.1289 30.1404 30.9086 29.9703 30.7006L29.9702 30.7005L28.1767 29.9531L28.4155 29.5138C28.4154 29.5138 28.4154 29.5137 28.4153 29.5137C28.0731 29.3277 27.7058 29.1709 27.3408 29.0225C27.2405 28.9817 27.1409 28.9418 27.0415 28.9019C26.7717 28.7937 26.5041 28.6863 26.2314 28.566C25.4948 28.241 24.7814 27.8463 24.1569 27.2124C23.6026 26.6451 23.2343 26.0284 22.9399 25.4357C22.8206 25.1956 22.7158 24.9647 22.6134 24.7389C22.5881 24.6832 22.563 24.6279 22.5378 24.5727C22.414 24.3016 22.2873 24.0322 22.1474 23.7961C22.1271 23.7616 22.107 23.7269 22.0868 23.6922C21.8863 23.3471 21.6858 23.002 21.3867 22.776C21.1094 22.5665 20.7859 22.4776 20.3957 22.4469L20.3907 22.4263H19.9983C19.4307 22.4263 18.9829 22.4785 18.6167 22.737C18.302 22.9591 18.1 23.3073 17.8971 23.6571C17.8816 23.6838 17.8662 23.7104 17.8507 23.737C17.7109 23.9728 17.5852 24.245 17.4626 24.5194C17.4356 24.5797 17.4087 24.6404 17.3816 24.7015C17.2818 24.9266 17.1795 25.1573 17.0627 25.3978C16.7687 26.0032 16.3994 26.634 15.8405 27.2082C15.2004 27.862 14.4828 28.2538 13.7519 28.5649C13.4668 28.6862 13.1871 28.7923 12.9057 28.8991C12.8217 28.931 12.7375 28.9629 12.6529 28.9953C12.2931 29.1333 11.93 29.279 11.593 29.4548C10.9628 29.7819 10.3723 30.1636 10.0263 30.5958L10.0256 30.5967C9.85867 30.8063 9.7205 31.0341 9.6284 31.3217C9.53806 31.6038 9.5 31.9187 9.5 32.2942C9.5 33.9905 10.8138 35.3482 12.5 35.3482C12.8097 35.3482 13.3777 35.2386 13.9959 35.0946C14.6373 34.9453 15.398 34.7428 16.1301 34.5279ZM16.1301 34.5279C16.1303 34.5278 16.1306 34.5278 16.1308 34.5277L15.99 34.0479L16.1293 34.5281C16.1295 34.5281 16.1298 34.528 16.1301 34.5279ZM16.194 4.93028L16.1926 4.92826C15.5976 4.08029 14.8843 3.7041 14.1667 3.7041C13.449 3.7041 12.7358 4.08029 12.1407 4.92826L12.1396 4.92984C11.5535 5.77193 11.1667 7.06371 11.1667 8.4607C11.1667 9.85798 11.5537 11.1477 12.1393 11.9911L12.1407 11.9931C12.7358 12.8411 13.449 13.2173 14.1667 13.2173C14.8843 13.2173 15.5976 12.8411 16.1926 11.9931L16.1937 11.9915C16.7798 11.1495 17.1667 9.85768 17.1667 8.4607C17.1667 7.06341 16.7797 5.77367 16.194 4.93028ZM27.8607 4.93028L27.8593 4.92826C27.2642 4.08029 26.551 3.7041 25.8333 3.7041C25.1157 3.7041 24.4024 4.08029 23.8074 4.92826L23.8063 4.92984C23.2202 5.77193 22.8333 7.06371 22.8333 8.4607C22.8333 9.85798 23.2203 11.1477 23.806 11.9911L23.8074 11.9931C24.4024 12.8411 25.1157 13.2173 25.8333 13.2173C26.551 13.2173 27.2642 12.8411 27.8593 11.9931L27.8604 11.9915C28.4465 11.1495 28.8333 9.85768 28.8333 8.4607C28.8333 7.06341 28.4463 5.77367 27.8607 4.93028ZM7.8607 16.8487L7.85928 16.8467C7.26422 15.9988 6.55098 15.6226 5.83333 15.6226C5.11569 15.6226 4.40245 15.9988 3.80738 16.8467L3.80628 16.8483C3.22019 17.6904 2.83333 18.9822 2.83333 20.3792C2.83333 21.7761 3.22019 23.0679 3.80628 23.91L3.80739 23.9116C4.40245 24.7596 5.11569 25.1357 5.83333 25.1357C6.55098 25.1357 7.26422 24.7596 7.85928 23.9116L7.86039 23.91C8.44647 23.0679 8.83333 21.7761 8.83333 20.3792C8.83333 18.9819 8.44633 17.6921 7.8607 16.8487ZM36.194 16.8487L36.1926 16.8467C35.5976 15.9988 34.8843 15.6226 34.1667 15.6226C33.449 15.6226 32.7358 15.9988 32.1407 16.8467L32.1396 16.8483C31.5535 17.6904 31.1667 18.9822 31.1667 20.3792C31.1667 21.7764 31.5537 23.0662 32.1393 23.9096L32.1407 23.9116C32.7358 24.7596 33.449 25.1357 34.1667 25.1357C34.8843 25.1357 35.5976 24.7596 36.1926 23.9116L36.1937 23.91C36.7798 23.0679 37.1667 21.7761 37.1667 20.3792C37.1667 18.9819 36.7797 17.6921 36.194 16.8487ZM10.2533 3.53345C11.1711 2.21891 12.5855 1.29883 14.1667 1.29883C15.7481 1.29883 17.1624 2.2175 18.08 3.53175C18.999 4.84795 19.5 6.57086 19.5 8.4607C19.5 10.3504 18.999 12.0717 18.08 13.3879C17.1622 14.7025 15.7478 15.6226 14.1667 15.6226C12.5852 15.6226 11.1709 14.7039 10.2533 13.3896C9.33435 12.0734 8.83333 10.3505 8.83333 8.4607C8.83333 6.57096 9.3343 4.84972 10.2533 3.53345ZM21.92 13.3896C21.001 12.0734 20.5 10.3505 20.5 8.4607C20.5 6.57096 21.001 4.84972 21.92 3.53345C22.8378 2.21891 24.2522 1.29883 25.8333 1.29883C27.4148 1.29883 28.8291 2.2175 29.7467 3.53175C30.6656 4.84795 31.1667 6.57086 31.1667 8.4607C31.1667 10.3504 30.6657 12.0717 29.7467 13.3879C28.8289 14.7025 27.4145 15.6226 25.8333 15.6226C24.2534 15.6226 22.8375 14.7038 21.92 13.3896ZM1.91997 15.4519C2.83776 14.1374 4.25215 13.2173 5.83333 13.2173C7.4148 13.2173 8.82911 14.136 9.7467 15.4502C10.6657 16.7664 11.1667 18.4893 11.1667 20.3792C11.1667 22.2689 10.6657 23.9901 9.7467 25.3064C8.82891 26.6209 7.41451 27.541 5.83333 27.541C4.25187 27.541 2.83755 26.6223 1.91997 25.3081C1.00102 23.9919 0.5 22.269 0.5 20.3792C0.5 18.4894 1.00097 16.7682 1.91997 15.4519ZM30.2533 15.4519C31.1711 14.1374 32.5855 13.2173 34.1667 13.2173C35.7481 13.2173 37.1624 14.136 38.08 15.4502C38.999 16.7664 39.5 18.4893 39.5 20.3792C39.5 22.2689 38.999 23.9901 38.08 25.3064C37.1622 26.6209 35.7478 27.541 34.1667 27.541C32.5852 27.541 31.1709 26.6223 30.2533 25.3081C29.3343 23.9919 28.8333 22.269 28.8333 20.3792C28.8333 18.4894 29.3343 16.7682 30.2533 15.4519Z" fill="black" stroke="black"/>
</svg>
